<?xml version="1.0" encoding="utf-8"?>
<!-- Generator: Adobe Illustrator 16.0.3, SVG Export Plug-In . SVG Version: 6.00 Build 0)  -->
<!DOCTYPE svg PUBLIC "-//W3C//DTD SVG 1.1//EN" "http://www.w3.org/Graphics/SVG/1.1/DTD/svg11.dtd">
<svg version="1.1" id="Calque_1" xmlns="http://www.w3.org/2000/svg" xmlns:xlink="http://www.w3.org/1999/xlink" x="0px" y="0px"
	 width="1280px" height="800px" viewBox="0 0 1280 800" enable-background="new 0 0 1280 800" xml:space="preserve">
<path fill="#FFFFFF" d="M598.72,587.52c1.6,2.56,3.52,4.8,5.76,6.72c8.96,8.96,20.8,14.08,33.6,14.08
	c12.801,0,24.641-4.8,33.601-14.08c8.96-8.96,14.08-20.8,14.08-33.6c0-3.521-0.32-7.04-1.28-10.561c-1.6,0.641-2.88,1.28-4.48,1.921
	v23.68c0,1.28-0.64,2.88-1.6,3.84l-21.439,21.44c-0.961,0.96-2.24,1.6-3.841,1.6H622.72c-1.28,0-2.88-0.64-3.84-1.6l-15.36-15.36
	C601.921,586.24,600.32,586.88,598.72,587.52z"/>
<path fill="#FFFFFF" d="M706.881,444.159c-0.32-0.319-0.96-0.319-1.28-0.64s-0.96-0.32-1.28-0.64c-2.24-0.96-4.16-1.92-5.76-2.88
	c-1.28-0.641-2.24-1.28-3.2-1.601c-0.319,0-0.64-0.32-0.64-0.32c-2.24-1.279-3.84-2.239-5.12-2.88c-0.32,0-0.32,0.32-0.64,0.32
	c-16.961,6.72-33.601,14.4-50.561,21.76c-0.64,0.32-1.28,0.641-1.92,0.96c-1.92,0.96-4.16,1.92-6.08,2.88
	c-9.28,4.16-18.56,8.32-27.84,12.16c-0.64,0.32-1.28,0.641-1.92,0.641c-0.96,0.319-1.6,0.64-2.561,0.96
	c-2.56,0.96-5.119,2.239-7.68,3.2c-5.439,2.239-10.88,4.479-16.64,6.399c-4.16,1.601-8.641,3.2-12.8,4.48
	c-0.32,0-0.641,0.319-0.961,0.319c-12.8,4.48-25.6,8-38.72,10.561c-0.64,0-1.28,0.319-1.92,0.319c-1.6,0.32-2.88,0.641-4.479,0.96
	c-0.32,0-0.641,0-0.96,0.32c-1.28,0.32-2.24,0.32-3.521,0.641c-1.28,0.319-2.56,0.319-3.84,0.64c-1.92,0.32-3.84,0.64-5.44,0.64
	c-4.159,0.641-8.319,0.96-12.8,0.96c-3.2,0.32-6.399,0.32-9.92,0.32l0,0v0.32v8.64v5.76v45.44v18.56v10.88l0,0
	c13.12,0,26.24-1.6,39.36-4.159c1.92-0.32,3.52-0.641,5.439-1.28c1.601-0.32,3.521-0.64,5.12-1.28c68.8-16.64,138.24-60.8,208-79.68
	c0.641-0.32,1.601-0.32,2.561-0.641V493.76v-5.44v-2.56v-4.16v-26.24c-3.84-0.96-7.681-2.239-11.521-3.84
	C720,450.24,712.961,447.039,706.881,444.159z M626.24,488.32c0.32-0.96,0.96-2.24,1.601-3.52c0.319-0.96,0.96-1.92,1.279-2.561
	c1.28-2.239,2.561-4.479,4.48-7.359c2.56,1.279,6.08,4.159,8.96,6.72c0.96,0.64,1.6,1.6,2.24,2.24
	c-3.521,0.319-6.721,0.96-10.24,1.279c-0.32,0.32-0.64,0.641-0.96,0.96c-1.28,0.96-2.88,2.24-4.16,3.2
	c-1.6,1.28-3.2,2.561-4.8,3.521C625.28,491.52,625.6,489.92,626.24,488.32z M516.801,569.6c-0.32,0.32-0.96,0.64-1.28,1.28
	c-0.64,0.64-1.6,1.279-2.24,1.6c-0.64,0.64-1.6,0.96-2.56,1.28c-1.28,0.64-2.561,0.96-3.84,1.279c-0.32,0-2.561,0.32-4.801,0.641
	c-2.239,0.319-4.479,0.319-5.439,0.64c-2.88,0.32-5.44,0.64-8.32,0.96l0,0l0,0l0,0c0.32-0.32,0.32-0.64,0.641-0.96
	c0-0.32,0.319-0.32,0.319-0.64c0.96-2.24,1.601-4.16,1.601-5.76c0-0.641,0-0.961,0.319-1.28c0-0.32,0-0.32,0-0.32v-32l0,0
	c0-0.96-0.64-5.12-2.88-8.32l0,0l0,0l0,0l0,0l0,0c0.96,0,2.24-0.319,3.2-0.319h0.32l0,0l0,0c0.96,0,3.84-0.641,7.04-1.28
	c0.64,0,1.279-0.32,1.6-0.32c1.92-0.319,3.84-0.64,5.12-0.96c0.64,0,0.96-0.319,1.28-0.319c0.319,0,0.64,0,0.96-0.32
	c0.64,0,1.279,0,1.92-0.32c0.319,0,0.64,0,0.96,0h0.319c0.641,0,1.601,0.32,2.24,0.64c3.84,1.28,7.04,4.16,8.96,8.32
	c0.96,2.561,1.601,5.12,1.92,8.32c0,0.32,0,9.28,0,9.6c0,0.32,0,0.32,0,0.641c0,5.76-1.92,10.88-4.8,15.359
	C518.72,567.36,517.76,568.64,516.801,569.6z M562.24,520.64c-1.279-0.32-2.56-0.32-3.84-0.32c-2.24,0-4.479,0.64-4.8,0.64l0,0
	c-1.92,0.641-3.84,1.28-5.76,1.921l0,0l0,0l0,0l0,0l0,0v12.159c0.319,0,0.319,0,0.64-0.319c1.28-0.32,2.561-0.96,3.84-1.28
	c0,0,3.521-1.6,6.721-4.479l0.319-0.32v12.479l0,0c-0.96-0.319-1.92-0.319-2.88-0.319c-2.24,0-4.16,0.64-4.16,0.64
	c-1.28,0.32-2.56,0.96-3.84,1.28c-0.32,0-0.64,0.319-0.64,0.319l0,0v11.841l0,0c0,0,0,0,0,0.319l0,0c1.6-0.64,3.52-1.279,5.12-1.6
	c0.319,0,0.319,0,0.64-0.32c0,0,4.8-1.92,8.64-5.76l0,0c0,0,0,0.64,0.32,0.96c0.32,0.96,0.96,2.56,1.6,4.16l-3.84,7.04l0,0
	c-0.32,0-0.64,0.319-0.96,0.319c-1.6,0.641-3.52,1.28-5.12,1.921l0,0c-2.88,0.96-3.84,1.279-4.16,1.6
	c-0.64,0.32-1.279,0.32-4.479,1.28l0,0l0,0l0,0c-3.84,1.279-7.68,2.239-11.2,3.52c0.32-0.32,0.32-0.64,0.32-0.96
	c1.6-3.2,1.92-5.76,2.24-7.36c0-0.64,0-1.279,0-1.279v-32c0,0-0.32-5.12-3.2-8.641l0,0c2.56-0.64,5.439-1.6,8-2.239c0,0,0,0,0.319,0
	c2.561-0.96,5.44-1.601,8-2.561l0,0l0,0c1.92-0.64,3.2-0.96,6.4-2.24l6.4,2.561l2.239,0.96c-0.64,1.6-1.6,3.2-2.239,4.8
	C562.56,520,562.24,520.32,562.24,520.64C562.24,520.32,562.24,520.64,562.24,520.64z M610.24,541.44
	c-2.24,0.96-4.16,1.92-6.399,2.88l0,0c-1.601,0.64-2.24,0.96-2.561,1.28c0.32-0.32-0.64,0.32,0,0c-0.319,0-0.96,0.32-2.56,1.28l0,0
	c-3.84,1.6-7.36,3.199-11.2,4.8c2.88-5.44,2.88-9.92,2.88-9.92v-32c0,0,0-4.48-2.88-7.681c0.96-0.319,1.6-0.64,2.56-0.96
	c0.96-0.319,1.601-0.64,2.561-0.96c2.24-0.96,4.8-1.92,7.04-2.88c1.6-0.64,3.2-1.28,4.479-1.92c-2.88,5.44-2.88,9.92-2.88,9.92l0,0
	v32l0,0c0,0,0,0,0,0.32c1.92-0.641,0.32,0,2.24-0.96c0,0,4.8-2.24,8.64-6.72c0,0.319,0.96,2.88,1.92,5.439l0,0L610.24,541.44z
	 M616.32,498.56c-0.64,0.32-1.6,0.64-2.24,0.96c-0.319,0-0.64,0.32-0.96,0.32v-16.641v-0.319v-1.28c0.32-0.32,0.96-0.32,1.28-0.64
	c0,0,0.32,0,0.32-0.32c0,0,0.319,0,0.319-0.32c2.24-1.28,5.44-2.56,7.04-3.52c0,0.319-0.319,0.96-0.64,1.92s-0.64,2.56-0.96,3.84
	c-0.32,0.64-0.32,1.6-0.64,2.24c0,0.319,0,0.64-0.32,0.64c-0.96,3.52-1.92,7.36-2.88,9.92l0,0
	C616.64,497.28,616.32,498.24,616.32,498.56z M626.881,534.079L626.881,534.079L626.881,534.079c0.319-0.319,0.319-0.96,0.64-1.279
	c1.6-3.84,2.24-7.681,2.24-8.641v-0.319V504.32l0,0c0-0.64-0.32-2.56-1.28-4.8c-0.32-0.96-0.96-1.92-1.6-2.88l0,0l0,0
	c0.64-0.32,1.6-0.64,2.239-0.96c0,0,0.32,0,0.32-0.32c0.64-0.32,1.28-0.64,1.92-0.96c0.32,0,0.64-0.32,0.96-0.32
	c2.88-1.279,5.44-2.56,8.32-3.52l0,0c0.32-0.32,0.96-0.32,1.28-0.64c0.64-0.32,0.96-0.32,1.6-0.641c0,0,0,0,0,0.32l0,0
	c0,0.32-0.32,0.32-0.32,0.64c-2.239,4.8-2.56,9.28-2.56,9.28v1.92v17.28c0,0,0.32,3.2,1.6,6.08c0,0,0,0.319,0.32,0.319
	c0.32,0.32,0.64,0.641,0.96,1.28l0,0l0,0C637.76,529.28,632.32,531.84,626.881,534.079z M675.2,512.96
	c-2.239,0.96-4.8,1.92-7.04,2.88l0,0h-0.319c-5.761,2.56-2.561,0.96-8.32,3.52c-2.24,0.96-4.479,1.92-6.72,2.88
	c2.56-5.12,2.56-9.279,2.88-9.92v-20.16v-3.2v-5.76v-2.56c0-0.64,0-4.48-2.88-7.36c0.96-0.32,1.6-0.64,2.56-0.96h0.32l0,0
	c0.64-0.32,0.96-0.32,1.6-0.64c2.561-0.96,5.12-2.24,7.681-3.2c0.64-0.32,1.279-0.64,1.92-0.64l0,0c0.96-0.32,1.92-0.641,2.88-1.28
	c-2.88,5.44-2.88,9.92-2.88,9.92l0,0v2.56v7.681v2.56V508.8l0,0c0,0,0,0,0,0.319c0.319,0,0.64-0.319,0.96-0.319
	c0,0,4.8-2.24,8.64-6.4c0,0.32,0.96,3.2,1.92,5.76l0,0L675.2,512.96z M711.36,499.52c-2.24,0.64-4.479,1.6-6.72,2.24l0,0
	c-5.76,1.92-3.2,1.279-7.36,2.56c-4.16,1.601-8.64,3.2-12.8,4.8c2.88-5.439,2.88-9.92,2.88-9.92v-11.52v-5.76v-6.4v-3.521v-5.439
	c0,0,0-2.88-1.6-5.76c-0.32-0.641-0.641-1.28-1.28-1.92c0.32,0,0.96-0.32,2.561-0.96c0.319,0,0.319,0,0.64-0.32
	c3.52-1.28,8.96-3.521,13.12-4.8c0.64-0.32,1.279-0.641,1.92-0.641c2.24,0.96,4.8,2.24,7.359,3.2c1.601,0.64,3.2,1.28,4.48,1.92
	c-0.32,0.32-0.32,0.96-0.64,1.28c-0.641,1.28-1.28,2.56-1.28,2.56c-4.16-0.96-8.641,0.96-8.641,0.96c-0.319,0-0.319,0.32-0.64,0.32
	c-1.28,0.64-2.56,0.96-3.84,1.6c-0.32,0.32-0.96,0.32-1.28,0.641v2.24v10.88c1.601-0.641,2.88-0.96,4.48-1.601
	c0,0,3.84-1.6,7.04-4.8v9.6v2.881c-3.2-0.961-7.04,0.319-7.04,0.319c-0.96,0.32-2.24,0.641-3.2,1.28c-0.32,0.32-0.96,0.32-1.28,0.64
	v9.28c0,0,0,0,0,0.32c1.92-0.641,3.84-1.28,5.761-1.92c0,0,4.8-1.92,8.64-5.761c0,0.32,0.96,3.2,1.92,5.761l0,0L711.36,499.52z"/>
<path fill="#FFFFFF" d="M566.08,101.76c-1.92,1.28-3.52,2.56-5.439,4.16v8V134.4v3.2v3.2v14.4v31.359v0.32v12.479
	c2.24-1.6,4.479-3.199,6.4-4.8c1.6-0.96,3.199-1.92,4.8-2.88c2.239-1.28,4.159-2.24,6.399-2.88c29.76-11.84,59.84,4.16,89.92,23.68
	c2.24,1.601,4.48,2.88,6.721,4.48l0,0l0,0c1.6,1.279,3.52,2.24,5.119,3.52c24.32,16,48.961,32,72.961,35.2
	c-11.841-16-24-34.88-36.16-55.68c-0.96-1.601-0.641-3.2,0.64-3.84c17.92-7.04,35.84-17.921,53.44-37.761
	c-1.601,0.32-2.881,0.641-4.48,0.641C700.801,166.4,631.68,56.64,566.08,101.76z M611.52,106.56c10.24,1.92,20.16,5.76,30.4,10.88
	c-0.96,1.28-2.24,2.561-3.521,4.16c1.28,2.24,2.24,4.8,3.521,7.04c-6.4-3.2-12.801-6.08-19.2-8.32v13.44
	c2.88-0.32,5.439-0.64,8.319-0.64c1.601,3.84,3.2,8,4.801,12.159c-4.48,0-8.641,0.32-13.12,0.96v6.4v6.4v2.56
	c3.2,0.96,6.399,2.24,9.279,3.521c2.881,1.279,5.761,2.56,8.641,4.159c-0.32,0.32-0.32,0.641-0.641,1.28
	c-0.64,0.96-0.959,2.24-1.6,3.2c0.641,2.24,1.6,4.479,2.24,6.72c-9.28-4.479-18.561-8.319-27.521-10.24
	c-0.64,0-0.96-0.319-1.6-0.319v-0.641v-16.96v-6.399V106.56z M578.881,171.84c0-6.4,0-12.48,0-18.88c0-2.24,0-4.16,0-6.4
	c0-5.439,0-10.56,0-16c0-2.24,0-4.16,0-6.399c0-5.12,0-10.24,0-15.36l0,0c3.52-1.28,7.359-2.24,10.88-2.88v25.28v6.399v16.32v3.84
	c1.6-0.32,3.2-0.32,4.8-0.64c2.88-0.32,5.76-0.32,8.32,0c-0.641,1.6-1.28,2.88-1.601,4.479c0,0.32-0.319,0.64-0.319,0.96
	c0.64,1.92,1.279,3.84,1.92,5.76c-0.641,0-0.96,0-1.601,0C593.921,168,586.24,168.96,578.881,171.84z M674.881,199.04
	c-2.561-0.32-5.12-1.601-8-3.2c-7.04-4.48-12.801-11.521-16-18.88c-1.28-2.561-1.92-5.12-2.24-7.681c0-0.96-0.32-1.92-0.32-2.88l0,0
	c1.92,1.92,3.521,4.16,5.44,6.08c1.92,0,3.84,0.32,5.76,0.32c0,1.28,0.32,2.56,0.96,3.84c1.28,3.2,3.84,6.4,6.72,8.32
	c2.24,1.279,4.16,1.6,5.761,0.96c1.279-0.641,1.92-1.92,1.92-3.521c0-2.88-0.96-5.12-3.84-8.96c-1.921-2.56-4.16-5.12-6.08-7.68
	c-2.24-2.56-4.16-5.12-6.4-8l0,0c-2.561-2.88-4.48-6.4-5.76-9.6c-1.601-3.2-2.24-6.4-2.24-9.28c0-9.28,7.68-12.48,16.96-6.4
	c4.48,2.88,8.64,7.36,11.84,12.48c-2.24-0.96-4.479-1.601-6.72-2.561c-0.32,1.92-0.64,3.521-0.96,5.44
	c-0.96-1.601-2.561-3.2-4.16-4.16c-3.2-1.92-5.76-0.96-5.76,2.24c0,1.28,0.319,2.24,0.64,3.2s0.96,2.239,2.24,3.84
	c1.92,2.56,4.16,5.12,6.08,7.68c2.24,2.561,4.16,5.44,6.399,8l0,0c5.12,6.72,8.96,14.72,8.641,21.44c0,5.12-1.92,8.319-5.44,9.6
	C678.4,199.36,676.801,199.36,674.881,199.04z"/>
<path fill="#FFFFFF" d="M560.32,210.56c0,0.32-0.32,0.96-0.32,1.28l0,0c0,0.96,0,1.6,0,1.92c0,0,0,0,0,0.32c0,0.319,0,0.319,0,0.64
	s0,0.64,0.32,0.96c0.32,0.96,0.32,1.6,0.96,2.561l0,0c0,0,0,0,0,0.319c0.32,0.641,0.32,0.96,0.641,1.601l0.319,0.319
	c0.32,0.32,0.32,0.96,0.641,1.28c0,0.32,0.319,0.32,0.319,0.64c0.32,0.32,0.32,0.641,0.641,0.96c0.319,0.32,0.319,0.641,0.64,0.641
	c0.32,0.319,0.64,0.64,0.64,0.96c0.32,0.319,0.641,0.64,0.641,0.96c0.319,0.32,0.64,0.64,0.96,0.96c0.319,0.32,0.64,0.64,0.96,0.96
	c0.319,0.32,0.64,0.64,0.96,0.96s0.64,0.64,1.28,0.96c0.319,0.32,0.64,0.64,0.96,0.96c0.319,0.32,0.96,0.64,1.279,0.96l0,0
	c0.32,0,0.32,0.32,0.641,0.32l-0.32-0.32c-0.32,0-0.32-0.32-0.64-0.32l0,0c0,0,16.96,13.12,45.76,16.32
	c15.68,1.601,26.56,9.92,32.32,16c3.52,3.521,5.439,6.4,5.439,6.4s-0.319-0.32-0.96-0.641l-0.32-0.319c-0.319,0-0.64-0.32-0.96-0.32
	c-0.319,0-0.64-0.32-0.64-0.32c-0.32-0.319-0.64-0.319-0.96-0.64s-0.64-0.32-0.96-0.64c-0.32-0.32-0.64-0.32-0.96-0.641
	c-0.32-0.319-0.96-0.319-1.28-0.64s-0.64-0.32-1.28-0.64l0,0c-0.319-0.32-0.96-0.641-1.6-0.641c-0.32-0.319-0.96-0.319-1.28-0.64
	c-0.64-0.32-1.279-0.64-1.6-0.96s-0.96-0.32-1.28-0.64c-0.64-0.32-1.28-0.641-1.92-0.961c-0.32-0.319-0.96-0.319-1.28-0.64
	c-0.64-0.32-1.279-0.64-1.92-0.96c-0.64-0.32-0.96-0.32-1.6-0.64c-0.641-0.32-1.28-0.641-2.24-0.96c-0.64-0.32-0.96-0.32-1.6-0.641
	c-0.641-0.319-1.601-0.64-2.24-0.64c-0.64-0.32-0.96-0.32-1.6-0.64c-0.641-0.32-1.601-0.641-2.24-0.641
	c-0.641-0.319-0.96-0.319-1.601-0.319c-0.64-0.32-1.6-0.32-2.239-0.641c-0.641,0-0.96-0.319-1.601-0.319
	c-0.64-0.32-1.6-0.32-2.239-0.641c-0.641,0-1.28-0.319-1.601-0.319c-0.64,0-1.6-0.32-2.24-0.32c-0.319,0-0.319,0-0.64,0l0,0
	c0.96,0.32,1.6,0.96,2.561,1.28c0.319,0.319,0.64,0.319,0.959,0.64c8.32,4.8,18.881,10.56,27.521,16c3.521,2.24,6.72,4.16,9.92,6.4
	c4.16,2.56,8,5.119,12.16,7.68c0.96,0.64,1.92,1.28,2.88,1.92c0.64,0.32,1.6,0.96,2.24,1.6c0.64,0.32,1.6,0.96,2.24,1.601l0,0
	c0-0.32,0-0.641,0-0.96c0-0.641,0-1.28,0-1.601l0,0v-0.319v-0.641l0,0c0-1.6-0.32-3.52-0.641-5.439c-0.32-1.28-0.64-2.561-0.96-3.84
	c-1.28-3.841-2.88-8-5.76-12.16c-5.76-8.32-15.68-16.641-32.64-23.04c-6.08-2.24-17.28-3.84-24.961-5.12
	c-1.6-0.32-3.52-0.64-4.8-0.96c-0.319,0-0.64-0.32-1.279-0.32c-1.28-0.32-2.561-0.64-3.521-0.96c-0.32,0-0.64,0-0.96-0.32
	c-1.28-0.319-2.88-0.64-3.84-1.279h-0.32c-1.28-0.32-2.239-0.641-3.2-1.28h-0.319l0,0c-9.601-4.48-15.04-11.2-17.28-14.4l0,0
	c0.32,0,0.32,0,0.64,0.32c8,3.84,14.4,9.92,35.841,13.76c7.68,1.28,18.88,2.561,25.92,5.12c17.92,6.72,28.8,15.681,35.199,24.96
	c1.28,1.92,2.24,3.84,3.2,5.76c0.32,0.961,0.96,1.601,1.28,2.561c0.64,1.28,0.96,2.56,1.6,3.84l0,0l-0.319-36.479l0,0l0,0
	l-2.561-2.561L672,233.6l-15.359-14.08l-2.24-0.64l0,0c0,0,10.561,6.08,14.72,8.64c0.32,0,0.641,0.32,0.641,0.32
	s0.319,0.32,0.64,0.32s0.64,0.319,0.64,0.319c0.641,0.32,1.28,0.641,1.921,0.96c0.64,0.32,0.96,0.641,1.6,0.96l0,0
	c0,0,0.32,0,0.32,0.32c0,0,0.319,0,0.319,0.32l0.96,0.64l0.641,0.32l0,0c1.279,0.64,2.239,1.279,3.52,1.92
	c37.44,21.76,50.88,23.04,54.08,23.04c-16-5.761-32-16-48-26.24c-2.24-1.6-4.48-2.88-6.08-3.84c-1.28-0.96-2.56-1.601-3.52-2.24l0,0
	c-0.32-0.32-0.96-0.64-1.28-0.96c-0.32,0-0.32-0.32-0.64-0.32c-0.961-0.64-1.601-1.279-2.561-1.6c-0.96-0.64-1.6-0.96-2.56-1.6
	c-31.04-20.16-62.4-37.12-92.8-24.32c-2.561,1.28-5.44,2.56-8,4.16c0,0,0,0.319-0.32,0.319l0,0c-0.32,0.32-0.32,0.32-0.641,0.641
	l0,0c-0.319,0.319-0.64,0.64-1.279,0.96l0,0l0,0c-0.641,0.64-1.28,0.96-1.92,1.6l-0.32,0.32c-0.64,0.64-0.96,0.96-1.6,1.6
	c0,0,0,0,0,0.32c-0.32,0.64-0.641,0.96-0.961,1.6c0,0,0,0.32-0.319,0.32c-0.32,0.64-0.64,0.96-0.64,1.6c0,0,0,0,0,0.32
	C560.64,209.6,560.32,209.92,560.32,210.56L560.32,210.56z"/>
<path fill="#FFFFFF" d="M532.801,187.52c-2.88,0-4.801,2.24-4.801,4.8c0,2.881,2.24,4.801,4.801,4.801c2.88,0,4.8-2.24,4.8-4.801
	C537.921,189.76,535.68,187.52,532.801,187.52z"/>
<polygon fill="#FFFFFF" points="572.16,689.28 572.16,689.28 566.4,695.039 570.881,697.28 "/>
<path fill="#FFFFFF" d="M777.28,475.84c1.92-0.96,2.561-3.521,1.28-5.44c-0.96-1.92-3.52-2.56-5.44-1.28
	c-1.92,0.96-2.56,3.521-1.6,5.44C773.12,476.159,775.36,476.8,777.28,475.84z"/>
<path fill="#FFFFFF" d="M752.64,474.24c0.96-1.92,0.32-4.16-1.28-5.439c-1.92-0.96-4.16-0.32-5.439,1.279
	c-0.96,1.921-0.32,4.16,1.279,5.44C749.44,476.8,751.68,476.159,752.64,474.24z"/>
<path fill="#FFFFFF" d="M766.4,475.84c0-2.24-1.6-3.84-3.84-3.84s-3.84,1.6-3.84,3.84c0,2.239,1.6,3.84,3.84,3.84
	C764.48,479.68,766.4,478.079,766.4,475.84z"/>
<path fill="#FFFFFF" d="M788.16,464.96c0.96-1.921,0.32-4.16-1.279-5.44c-1.92-0.96-4.16-0.32-5.44,1.28
	c-0.96,1.92-0.32,4.16,1.28,5.439C784.64,467.199,787.2,466.56,788.16,464.96z"/>
<path fill="#FFFFFF" d="M725.76,526.4c4.16-1.28,8.319-2.56,12.8-3.52l0,0v-8.641c-0.96,0.32-1.6,0.32-2.561,0.641
	c-0.64,0.319-1.279,0.319-2.239,0.64c-62.4,17.6-125.44,55.68-189.12,74.56c-4.48,1.28-8.96,2.561-13.76,3.521
	c-0.96,0.32-1.92,0.64-2.881,0.64c-0.959,0.32-1.6,0.32-2.56,0.641c-1.92,0.319-3.52,0.96-5.44,1.279
	c-14.079,2.88-27.84,4.48-41.92,4.48l0,0v7.359c16,0,31.36-1.92,47.04-5.119c2.24-0.32,4.16-0.96,6.4-1.28
	c3.2-0.641,6.4-1.601,9.6-2.24c7.04-1.92,14.08-4.16,21.12-6.4c6.721-2.239,13.44-4.8,20.16-7.359c1.28-0.641,2.561-0.96,3.84-1.601
	c7.36-2.88,14.721-5.76,21.76-8.96c3.521-1.6,7.04-2.88,10.561-4.479c17.28-7.36,34.24-15.36,51.2-22.72
	c7.04-3.2,14.399-6.08,21.439-8.96c1.28-0.641,2.561-0.96,3.841-1.601c6.72-2.56,13.439-5.12,20.479-7.359
	C718.72,528.64,722.24,527.36,725.76,526.4z"/>
<path fill="#FFFFFF" d="M743.041,325.44L743.041,325.44c1.6,0.32,2.88,0.96,4.159,1.28l0.32-0.32c0.32-0.32,0.64-0.64,0.96-0.96
	s0.64-0.64,1.28-0.96c0.319-0.32,0.64-0.32,0.64-0.64c0.32-0.32,0.96-0.641,1.28-0.641H752c0,0,0,0,0.32,0s0.32-0.319,0.641-0.319
	c0.64-0.32,1.279-0.641,2.239-0.641h0.32c0.96-0.319,1.6-0.319,2.56-0.319l0,0l0,0c0.961,0,1.601,0,2.561,0.319l0,0l0,0
	c0.32,0,0.32,0,0.64,0.32c0.641,0,0.96,0.32,1.601,0.32c0.319,0,0.64,0.319,0.96,0.319c0.319,0,0.64,0.32,0.64,0.32
	c0.32,0,0.32,0.32,0.64,0.32c0.32,0.319,0.641,0.319,0.96,0.64c0.32,0.32,0.641,0.64,0.961,0.96c0.319,0.32,0.64,0.64,0.959,0.64
	c0.32,0.32,0.641,0.641,0.961,0.96c0.64,0.641,0.96,1.28,1.279,1.921c0.32,0.319,0.32,0.64,0.641,0.96
	c0.319,0.319,0.319,0.96,0.64,1.279l0,0c0,0.32,0.32,0.32,0.32,0.641c2.88,0.319,5.76,0.319,8.64,0.319c0.64,0,0.96,0,1.6,0
	c-0.96-5.76-3.84-10.88-8-14.399c0,0,0,0-0.319-0.32c-0.32-0.32-0.96-0.64-1.28-0.96c-0.32,0-0.32-0.32-0.64-0.32
	c-0.32-0.319-0.641-0.64-1.28-0.64c-0.32,0-0.64-0.32-0.64-0.32c-0.32-0.319-0.641-0.319-0.96-0.64c-0.32,0-0.641-0.32-0.961-0.32
	c-0.319,0-0.64-0.319-0.96-0.319c-0.319,0-0.64-0.32-1.279-0.32c-0.32,0-0.641-0.32-0.96-0.32c-0.32,0-0.96-0.319-1.28-0.319
	s-0.64,0-0.96-0.32c-0.641,0-0.96-0.32-1.6-0.32c-0.32,0-0.32,0-0.641,0c-0.64,0-1.28,0-1.92,0c-0.32,0-0.32,0-0.64,0l0,0
	c-0.96,0-1.92,0-2.561,0.32c-0.319,0-0.64,0-0.96,0s-0.32,0-0.64,0c-0.64,0-0.96,0.32-1.28,0.32s-0.64,0-0.64,0.319
	c-1.92,0.641-3.521,1.28-5.12,2.24l0,0c-0.32,0.32-0.64,0.32-0.64,0.64c-0.641,0.32-0.96,0.641-1.601,1.28l0,0
	c-2.24,1.92-4.16,4.16-5.76,6.72c0,0,0,0,0,0.32c0,0,0,0,0.32,0h0.319C739.52,324.48,741.44,325.119,743.041,325.44z"/>
<path fill="#FFFFFF" d="M644.16,421.44L644.16,421.44C644.48,421.44,644.16,421.44,644.16,421.44
	C644.48,421.44,644.48,421.119,644.16,421.44c0.32-0.32,0.32-0.32,0.641-0.32c0-0.319,0.319-0.64,0.64-0.96
	c0,0,0.32-0.64,1.28-1.279c0.96-0.641,2.24-1.28,3.84-1.28s2.88,0.64,3.84,1.28c0.96,0.64,1.28,1.279,1.28,1.279
	c0.319,0.641,0.64,0.96,0.96,0.96c0,0,0,0,0.32,0c0.319,0,0.319-0.319,0.319-0.319l0,0c0,0,0-0.641,0-1.28s-0.319-2.88-0.64-3.84
	c0,0-1.92-3.2-5.44-3.2c-3.52,0-5.439,3.2-5.439,3.2c-0.641,0.96-0.641,3.2-0.641,3.84L644.16,421.44
	C643.841,421.119,643.841,421.119,644.16,421.44L644.16,421.44z"/>
<path fill="#FFFFFF" d="M560.64,99.84c1.6-1.28,3.52-2.88,5.12-3.84c58.56-40.32,119.359,41.6,178.56,56
	c9.601,2.239,18.88,2.88,28.48,0.64c0,0,0,0,0-0.32c-0.32,0-0.641,0-0.96,0.32c0.64-0.32,1.279-0.96,0.96-1.28
	c0-0.319-0.641-0.319-1.28-0.64c-0.96-0.32-10.24-0.96-20.16-3.2c-13.12-2.56-24.64-8-38.08-16.319c-0.319,0-0.319-0.32-0.64-0.32
	c-10.24-6.4-19.84-12.8-30.08-19.2c-3.2-2.24-6.4-4.16-9.92-6.4c-23.68-14.72-46.72-27.52-69.12-28.159
	c-13.44-0.32-29.76,1.279-44.16,13.76c0,2.88,0,6.08,0.32,8.96C560,100.16,560.32,99.84,560.64,99.84z"/>
<path fill="#FFFFFF" d="M689.28,286.72c-4.479,1.92-8.319,3.52-11.52,5.12l-0.32,0.96l0,0c1.92,0.96,3.521,2.24,5.44,3.2
	c0.96,0.64,1.6,0.96,2.56,1.6c0.64-0.32,1.28-0.64,1.601-0.64c1.279-0.641,2.56-1.28,3.84-1.601c0.96-0.319,1.6-0.64,2.56-0.96
	c1.28-0.64,2.24-0.96,3.521-1.6c0.96-0.32,1.6-0.64,2.56-0.96s2.24-0.96,3.2-1.28s1.6-0.64,2.56-0.96s1.92-0.64,2.88-0.96
	s1.92-0.64,2.881-0.96c0.96-0.32,1.92-0.64,2.88-0.96s1.92-0.64,3.199-0.96c0.96-0.32,1.601-0.32,2.561-0.64
	c1.28-0.32,2.56-0.641,3.84-0.641c0.64,0,1.28-0.319,2.24-0.319c0.319,0,0.64,0,0.96,0c1.6-0.32,3.2-0.641,4.8-0.641h0.32
	c0.64,0,1.279,0,1.92,0c5.76-0.64,11.2-0.96,16.319-0.96c4.16,0,8,0.32,11.841,0.64c0,0,0,0,0.319,0c3.84,0,9.92,0.961,9.92,0l0,0
	c0-0.319-0.319-0.319-0.96-0.64c-11.84-3.2-23.04-4.479-33.279-4.479C717.12,277.44,700.801,282.24,689.28,286.72z"/>
<path fill="#FFFFFF" d="M816,617.28h-63.039h-0.32c-21.12,42.561-64.96,72-115.84,72c-25.28,0-48.641-7.359-68.48-19.84
	c-19.84-12.479-36.16-30.4-47.04-51.52c0-0.32-0.319-0.32-0.319-0.641l-0.32,0.32l0,0h-62.4l19.84,19.52l-19.84,21.12h1.28h33.92
	L488,641.6c0.641,0.96,0.961,1.92,1.601,2.56c14.399,25.28,34.88,46.4,59.84,61.44c25.601,15.36,55.68,24.32,87.68,24.32
	c64.32,0,120.32-35.84,149.12-88.641l-1.6,4.48l-4.16,12.16h0.96h34.24l-19.84-21.12l19.52-19.2L816,617.28z M761.921,664.96
	c-1.921,2.239-4.48,3.84-7.36,4.8l-2.24-5.44c1.92-0.319,4.16-0.96,5.44-2.56c0.96-0.96,1.28-2.88,0-3.84s-3.521,0.319-4.48,1.279
	c-3.52,2.24-5.76,3.521-9.28,0.641c-3.84-3.2-3.84-8-0.96-11.521c1.601-1.92,4.16-3.52,6.4-4.479l2.24,5.12
	c-1.601,0.319-2.88,0.96-3.84,2.239c-0.641,0.96-1.28,2.561-0.32,3.2c0.96,0.96,2.56,0,3.52-0.64l1.28-0.96
	c2.88-1.92,5.76-2.88,8.96-0.32c1.92,1.6,3.2,3.521,3.521,6.08C764.48,660.8,763.52,663.039,761.921,664.96z M524.801,653.76
	l-10.88,9.92l-4.16-4.8l17.92-16l4.16,4.8l-3.521,18.24l0,0L539.2,656l4.16,4.8l-17.92,16l-4.16-4.8L524.801,653.76L524.801,653.76z
	 M562.56,698.56l-3.52,2.88l-5.761-2.88l19.2-17.28l6.08,3.2l-2.88,25.6l-6.08-3.199l0.64-4.48L562.56,698.56z M633.28,722.24
	l-6.08-0.64l-9.92-15.68l0,0l-1.6,14.72L609.6,720l2.56-24l6.08,0.64l9.92,15.68l0,0l1.601-14.72l6.08,0.64L633.28,722.24z
	 M714.56,685.44l6.08-3.84l2.88,4.479l-6.08,3.841l2.24,3.52l6.399-3.84l2.881,4.479l-11.521,7.04l-12.8-20.479l11.52-7.04
	l2.881,4.479l-6.4,3.841L714.56,685.44z M679.68,716.48l-6.08,1.6l-4.48-18.239l-5.12,1.279l-1.279-5.12l16-3.84l1.279,5.12
	l-5.119,1.28L679.68,716.48z"/>
<path fill="#FFFFFF" d="M816,442.88L816,442.88c-0.319,0-0.319,0-0.64,0c-2.56,0.96-5.12,1.6-7.36,2.56
	c-3.52,0.96-7.039,1.92-10.56,2.24c-5.76,0.96-11.84,1.6-17.6,1.6l0,0c-11.841,0-23.681-1.92-35.521-5.439c0,0,0,0-0.32,0l0,0
	c-1.92-0.641-3.84-1.28-5.439-1.92c-0.32,0-0.64-0.32-0.96-0.32c-4.16-1.28-8.32-2.88-12.8-4.8c-1.28-0.641-2.561-0.96-3.84-1.601
	c-1.601-0.64-2.881-1.279-4.48-1.92c-1.92-0.96-3.52-1.6-5.439-2.56c-1.601-0.641-3.2-1.601-4.801-2.24
	c-1.6-0.64-3.199-1.6-4.8-2.24c-1.92-0.96-3.52-1.92-5.44-2.88c-0.64-0.32-1.279-0.64-2.239-0.96c-3.84-1.92-7.681-4.16-11.521-6.4
	c-1.92-0.96-3.84-2.239-5.439-3.199c-11.2-6.4-22.08-13.44-32.96-20.48c-0.32-0.32-0.641-0.32-0.96-0.64
	c-2.881-1.92-5.761-3.521-8.32-5.44c-6.4-4.16-12.8-8-19.2-11.84c-1.28-0.96-2.88-1.6-4.16-2.56c-0.96-0.641-1.6-0.96-2.56-1.601
	c-0.96-0.64-1.92-0.96-2.561-1.6c-0.96-0.641-1.92-0.96-2.56-1.601c-0.96-0.64-1.92-0.96-2.56-1.6c-0.641-0.32-1.28-0.64-1.601-0.96
	c-1.6-0.96-3.2-1.92-4.8-2.88c-1.92-0.96-3.84-2.24-5.76-3.2c-7.681-4.16-15.681-8-23.36-11.2c-3.84-1.6-7.36-2.88-11.2-4.16
	c-15.04-5.439-29.76-8.64-44.8-8.64c-8.96,0-17.92,1.28-26.88,3.84c-0.64,0.32-1.6,0.32-2.24,0.641
	c-1.28,0.319-2.56,0.96-3.84,1.279l0,0c-0.32,0.32-0.32,0.32-0.64,0.641c-0.641,0.96-1.28,1.92-1.28,2.88c0,0.319,0,0.319,0,0.64
	s0,0.64,0.32,0.96c0.319,0.641,0.64,1.28,1.279,1.92c0.641,0.641,1.601,1.601,2.561,2.561c0.64,0.319,1.279,0.96,1.92,1.6
	c0.64,0.64,1.6,0.96,2.24,1.6c1.92,1.28,4.479,2.561,7.359,3.841c0.96,0.319,1.92,0.96,3.2,1.279c7.04,2.88,16.64,6.4,29.44,9.601
	c2.56,0.64,4.8,1.279,7.04,2.24c0.64,0.319,0.96,0.319,1.6,0.64c2.24,0.64,4.16,1.28,6.4,2.24h0.319l0,0
	c-0.64,0.319-1.6,0.96-2.24,1.279c-0.319,0-0.319,0.32-0.64,0.32c-0.64,0.32-1.6,0.96-2.24,1.6c-0.319,0-0.319,0.32-0.64,0.32
	c-6.08,3.84-12.48,8.64-14.72,10.24c-0.32,0.64-0.32,1.6-0.641,2.56c0,0.32,0,0.641,0,0.641c1.601-0.641,3.521-1.28,5.761-2.24
	c0.319,0,0.319-0.32,0.64-0.32l17.28-7.68l4.479-1.92l1.92-0.641l0,0h0.32c0,0,0.32,0,0.32-0.319c0.319,0,0.64-0.32,0.64-0.32l0,0
	h0.32c0.64-0.32,1.6-0.64,2.239-0.96c0.96-0.32,1.921-0.64,2.881-1.28c0.96-0.319,1.92-0.64,2.56-1.279
	c-0.96-0.641-1.92-0.96-2.88-1.601c-0.32,0-0.64-0.319-0.96-0.319c-0.96-0.32-1.92-0.961-2.88-1.28c-0.32-0.32-0.96-0.32-1.28-0.641
	c-0.64-0.319-1.6-0.64-2.24-0.96c-0.64-0.319-1.279-0.64-1.92-0.96c-0.64-0.319-0.96-0.319-1.6-0.64c-0.96-0.32-1.92-0.64-2.88-1.28
	c0,0-0.32,0-0.641-0.319c-4.479-1.601-9.6-3.2-14.72-4.801c-0.32,0-0.96-0.319-1.28-0.319c-1.28-0.32-2.56-0.641-3.84-0.96
	c-0.64-0.32-1.28-0.32-1.92-0.641c-0.96-0.319-1.92-0.64-2.88-0.96c-0.641-0.319-1.28-0.319-1.92-0.64
	c-0.96-0.32-1.92-0.64-2.561-0.96c-0.64-0.32-1.279-0.32-1.6-0.64c-0.96-0.32-1.6-0.641-2.56-0.961l0,0
	c-0.32,0-0.96-0.319-1.28-0.319c-1.28-0.32-2.24-0.96-3.521-1.28c-0.319-0.32-0.96-0.32-1.279-0.32
	c-0.641-0.319-1.601-0.64-2.24-0.96c-0.64-0.319-0.96-0.319-1.601-0.64c-0.319,0-0.64-0.32-0.96-0.32l0,0
	c-6.079-3.199-6.72-5.439-6.72-5.439s-0.64-0.641,2.561,0.319l0,0c2.56,0.641,13.76,4.16,23.359,6.721c2.88,0.64,5.76,1.279,8,1.92
	l0,0c1.28,0.319,2.24,0.64,3.521,0.96c0.319,0,0.64,0,0.64,0.32c1.92,0.64,3.84,0.96,5.76,1.6c0.641,0,0.96,0.32,1.601,0.32
	c1.279,0.319,2.88,0.96,4.159,1.279c0.641,0.32,1.28,0.32,1.601,0.641c1.28,0.319,2.56,0.96,3.52,1.279
	c0.641,0.32,0.96,0.32,1.601,0.641c1.279,0.319,2.24,0.96,3.52,1.279c0.641,0.32,0.96,0.32,1.601,0.641
	c1.279,0.64,2.239,0.96,3.52,1.6c0.32,0.32,0.96,0.32,1.28,0.641c1.28,0.64,2.24,0.96,3.52,1.6c0.32,0.32,0.641,0.32,0.96,0.64
	c1.28,0.641,2.24,1.28,3.521,1.92c0.32,0,0.64,0.32,0.64,0.32c0.32,0,0.32,0.32,0.641,0.32l0,0c3.84-1.601,7.68-3.2,11.199-4.8
	l-0.319-0.32L552,349.76c3.2,0.96,6.4,2.239,9.601,3.52l19.2,8.64l0.64,0.32c1.6,0.96,3.521,1.92,5.44,2.88
	c1.279,0.641,2.239,1.28,3.52,1.92c3.84,1.92,7.68,4.16,11.52,6.4l0,0l0,0c0,0,0.32,0,0.32,0.32c0.96,0.64,1.92,0.96,2.561,1.6
	c0.319,0.32,0.64,0.32,0.96,0.64l0,0l0,0c0,0,0,0-0.32,0.32s-0.32,0.32-0.64,0.64c-0.96,0.96-1.92,1.92-2.561,2.561
	c-2.56,2.56-4.8,5.439-6.72,8.64c-0.96,1.601-1.92,2.88-2.88,4.48c0,0,0,0.319-0.32,0.319c-0.96,1.601-1.6,3.2-2.56,4.801
	c-0.96,1.92-1.601,3.84-2.24,5.76s-1.28,3.84-1.601,5.76C584.64,414.4,584,419.84,584,425.6c0,13.439,3.841,25.6,10.561,36.16
	c-0.32,0-0.64,0.319-0.96,0.319s-0.64,0.32-1.28,0.32c-2.56,0.96-4.8,1.92-7.359,2.88l0,0l0.319-0.64l0,0h-0.96l-10.24,1.6
	c-0.64,0-1.6-0.32-1.92-0.96c-0.319-0.64-0.319-1.28,0-1.92l4.16-5.12l2.88-3.52L568,454.4c-0.319,0-0.64,0-0.64-0.32
	c-0.32-0.319-0.64-0.64-0.96-0.96c0-0.32,0-0.64,0-1.28c0-0.319,0.32-0.64,0.32-0.64l3.199-2.88l5.12-4.8l-6.399-1.28l-4.48-0.96
	c-0.319,0-0.319,0-0.319-0.32c-0.641-0.319-0.96-0.64-0.96-1.279c0-0.641,0.319-1.601,0.96-1.92l2.239-1.28l7.36-4.48l0,0
	l-8.96-3.52l-1.6-0.64c-0.641-0.32-1.28-0.961-1.28-1.601s0.319-1.28,1.28-1.6l10.56-4.16l-9.6-5.76
	c-0.32-0.32-0.641-0.32-0.641-0.641c0-0.319-0.319-0.64,0-0.96c0-0.32,0.32-0.96,0.641-0.96c0.319,0,0.319-0.32,0.64-0.32
	l7.04-1.279l4.16-0.96l-8.32-7.36c-0.32-0.32-0.32-0.32-0.32-0.64c-0.319-0.32-0.319-0.96,0-1.28c0.32-0.64,0.96-1.28,1.601-1.28
	l7.04-0.319l0,0h4.16l-7.04-8.641v-0.319c-0.32-0.32-0.32-0.641-0.32-0.961c0-0.319,0-0.319,0-0.64c0.32-0.32,0.64-0.64,0.96-0.64
	s0.64,0,0.64,0l0,0l5.761,0.96l5.439,0.96l0,0l-2.24-3.84v-0.32l-0.96-1.92l-2.239-3.84c-0.32-0.32-0.32-0.641-0.32-1.28l0,0
	c0-0.32,0-0.64,0.32-0.64c0-0.32,0.319-0.32,0.64-0.32l0.32-0.32h0.319c0.32,0,0.32,0,0.641,0L592,380.48l0,0c0,0,0,0,0-0.32
	c0.32-0.96-0.64-2.56-1.92-3.84c-0.319-0.32-0.96-0.96-1.6-1.6c-2.24-2.24-5.76-4.48-8.32-6.08l0,0c-3.52,1.6-7.359,3.2-11.2,5.12
	c-0.319,0-0.319,0-0.64,0.319c-1.92,0.641-3.52,1.601-5.439,2.24c-0.641,0.32-0.961,0.32-1.601,0.64
	c-0.64,0.32-1.28,0.641-1.92,0.96c-0.32,0-0.32,0-0.64,0.32c-0.96,0.32-1.92,0.64-2.88,1.28c-0.641,0.32-0.96,0.32-1.601,0.64
	c-0.64,0.32-1.28,0.641-1.92,0.96c-0.32,0.32-0.96,0.32-1.28,0.641c-0.96,0.319-1.92,0.96-2.88,1.279
	c-1.92,0.96-3.52,1.601-5.439,2.561c-1.28,0.64-2.88,1.279-4.16,1.92c-0.32,0.32-0.641,0.32-1.28,0.64
	c-0.96,0.641-2.24,0.96-3.2,1.28c-0.319,0-0.319,0.32-0.64,0.32c-1.28,0.64-2.56,0.96-3.84,1.6s-2.561,0.96-3.84,1.6l0,0l0,0
	l-6.721,2.881l0,0c0,0-0.64,0.319-1.6,0.64h-0.32c-0.319,0-0.64,0.32-1.279,0.32l0,0l0,0c-1.28,0.319-1.921,0.64-1.921,0.64
	s-0.96,0.32-2.239,0.64l0,0c-0.32,0-0.96,0.32-1.601,0.32c-2.239,0.64-5.439,1.6-8.319,2.24l0,0c-0.96,0.319-1.92,0.319-2.88,0.64
	h-0.32c-3.521,0.32-5.76-0.32-7.36-1.6c-0.96-0.641-1.92-1.601-2.56-2.561c-2.24-3.52-1.601-8.32-1.28-9.92
	c-0.96,0-1.6,0.32-2.56,0.64c-2.881,1.28-4.48,3.841-5.44,6.721c-0.32,1.279-0.96,2.56-0.96,3.52c-0.64,2.561-0.64,4.8-0.64,4.8
	c0,1.28,0,2.24,0,3.2c0,0.641,0,0.96,0,1.28c0,1.6,0.319,2.88,0.64,4.479c2.24,11.521,9.28,18.881,17.6,24
	c0.96,0.641,1.92,0.96,2.881,1.601c2.56,1.28,5.439,2.56,8.319,3.52c0.32,0,0.96,0.32,1.28,0.32c2.24,0.64,4.479,1.28,6.72,1.92
	c0.32,0,0.641,0,0.641,0.32c3.199,0.64,5.76,0.96,8,1.28c3.84,0.319,6.079,0.319,6.079,0.319s-0.319,0-0.64,0.32l0,0l0,0
	c0.96,0,1.601,0,1.601,0l0,0l0,0c0,0,0,0-0.32,0l0,0c0,0-0.32,0-0.32,0.32c0,0,0,0-0.32,0l0,0l0,0c0,0-0.319,0.319-0.64,0.319
	c0,0-0.319,0-0.319,0.32l0,0l0,0l0,0c-0.641,0.32-0.961,0.96-1.601,1.28c-0.32,0-0.32,0.319-0.64,0.319
	c-0.32,0-0.32,0.32-0.641,0.32l0,0c-0.64,0.32-0.96,0.96-1.6,1.601l0,0l0,0l0,0c-0.64,0.64-1.28,1.279-1.92,1.92l0,0l0,0l0,0
	c-0.32,0.319-0.641,0.64-0.641,0.96c-1.279,1.279-2.56,2.88-3.84,4.479c-0.319,0.641-0.96,1.28-1.279,1.92l0,0l0,0l0,0
	c-0.32,0.641-0.641,1.28-1.28,1.92c-0.32,0.32-0.32,0.641-0.64,0.96l0,0l0,0l0,0c-1.28,2.24-2.24,4.48-2.881,7.04l0,0
	c-0.319,1.28-0.64,2.561-0.96,3.841v0.319c-0.319,1.28-0.64,2.561-0.64,4.16c0,0.32,0,0.32,0,0.64c0,0.96,0,1.921-0.32,2.881
	c0,0.64,0,0.96,0,1.6l0,0c0,1.92,0,3.84,0,5.76c0,0.96,0,1.601,0.32,2.561c0,1.279,0.32,2.56,0.64,3.84v0.319v0.32
	c0.96-0.32,2.24-0.32,3.2-0.64c7.04-1.28,14.4-2.88,21.44-4.8l0,0c14.399-3.84,29.12-8.641,43.52-14.08l0,0
	c2.88-0.96,5.44-2.24,8.32-3.2c3.52-1.28,6.72-2.88,10.24-4.16c0.319-0.32,0.96-0.32,1.279-0.64c0,0,0.32,0,0.32-0.32
	c0.32,0,0.32-0.32,0.64-0.32c3.2-1.279,6.4-2.56,9.601-4.16c2.56-1.279,5.12-2.239,8-3.52c3.52-1.6,7.04-3.2,10.56-4.8l0,0
	c1.92-0.96,3.84-1.601,5.44-2.561l0,0c4.16-1.92,8.319-3.84,12.479-5.439c8.641-3.84,17.28-7.681,26.24-11.521
	c6.08-2.56,12.16-5.12,18.24-7.68c0.32,0,0.64-0.32,1.279-0.64c0.32,0,0.641,0.319,0.961,0.319c0.64,0.32,1.279,0.641,1.92,0.96
	c1.279,0.641,2.239,1.28,3.52,1.921c0.641,0.319,1.28,0.64,2.24,0.96c2.56,1.279,4.8,2.56,7.359,3.84c0.32,0,0.32,0.319,0.641,0.319
	c2.56,1.28,5.12,2.24,7.359,3.521c0.32,0.32,0.641,0.32,0.961,0.64c2.56,0.96,4.8,2.24,7.359,3.2c0.641,0.32,1.601,0.64,2.24,0.96
	c1.92,0.64,3.84,1.6,5.76,2.24l0,0c0.96,0.32,1.92,0.64,2.88,0.96l0,0h0.32c0.96,0.32,1.92,0.64,2.88,0.96s1.601,0.64,2.561,0.64
	l0,0c0.319,0,0.96,0.32,1.279,0.32c1.28,0.32,2.24,0.64,3.521,0.96c0.319,0,0.64,0.32,0.96,0.32v4.16
	c2.56,7.359,9.6,12.8,18.24,12.8c8.319,0,15.359-5.44,18.239-12.8c1.92,0,3.841,0,5.761-0.32c0.64,0,3.84,0,8-0.32
	c-2.881,15.36-16,26.88-32,26.88c-6.721,0-12.801-1.92-18.24-5.439v4.479v4.8c0.32,0,0.64,0,0.64,0c0.96,0.32,1.92,0.641,2.88,1.28
	c0,0,0.32,0.32,0.641,0.32c0.64,0.32,1.279,1.28,2.239,2.88l4.801,13.12c0.319,0.64,0.96,1.28,1.6,1.6c0.32,0,0.64,0.32,0.96,0.32h8
	c0.96,0,2.24-0.64,2.561-1.92l4.479-12.16c1.28-3.2,3.2-4.16,3.2-4.16c0.96-0.32,1.92-0.64,2.56-1.28c0.32,0,1.92-0.319,4.16,0.32
	l12.8,5.76c0.96,0.32,2.24,0.32,2.881-0.64l5.76-5.76c0.64-0.641,0.96-2.24,0.64-3.2l-5.44-11.84c-1.279-3.2-0.64-5.44-0.64-5.44
	c0.32-0.96,0.64-1.92,1.28-2.88c0.32-0.319,1.28-1.6,3.2-2.56l13.12-4.8c0.319,0,0.319-0.32,0.64-0.32
	c0.64-0.64,0.96-1.28,0.96-2.24v-8c0-0.64-0.32-1.6-0.96-1.92C816.64,443.199,816.32,442.88,816,442.88z M647.36,403.52
	C647.68,403.52,647.68,403.52,647.36,403.52c2.24,1.28,4.16,2.56,6.08,3.84l0,0c1.92,1.28,3.84,2.24,5.76,3.521
	c0.32,0,0.32,0.319,0.641,0.319c1.92,1.28,3.52,2.24,5.439,3.521c0.32,0.319,0.641,0.319,0.96,0.64c0.641,0.32,1.601,0.96,2.24,1.28
	c0.96,0.64,2.24,1.28,3.2,1.92l0,0c0.319,0.64,0.319,1.28,0.64,1.92c0.32,1.92,0.641,3.84,0.641,5.76c0,0.32,0,0.641,0,1.28
	c-3.841,1.6-7.36,3.2-11.2,4.8c0.64-1.92,1.28-5.439,1.28-7.04c0,0,0,0,0-0.319c0-1.28,0-2.561,0-2.561l0,0
	c0,0-0.32-0.32-0.641-0.32s-0.32,0-0.32,0.32c-0.319,0.32-0.96,0.96-1.6,2.24c0,0-0.96,1.28-2.88,2.88
	c-0.64,0.64-1.28,0.96-2.24,1.28c-0.319,0.319-0.96,0.64-1.6,0.64c-1.28,0.32-2.561,0.64-3.84,0.64c-2.561,0-4.48-0.96-6.08-1.92
	c-0.32-0.319-0.96-0.64-1.28-0.96c-1.92-1.6-2.88-2.88-2.88-2.88c-0.32-0.64-0.96-1.28-1.28-1.6c0-0.32-0.32-0.32-0.32-0.641
	c0,0,0,0,0-0.319c0,0,0,0-0.319-0.32l0,0c0,0-0.32,0-0.32,0.32c0,0.319,0,0.319,0,0.319c0,0.32,0,1.601,0,2.88
	c0,0.961,0.32,3.841,0.96,5.761c0.32,0.96,0.32,1.6,0.641,1.92c0,0,0.64,1.28,1.92,2.56c1.279,1.28,3.199,2.561,5.439,3.521
	c-3.52,1.6-7.359,3.2-10.88,4.8c-1.28-1.28-2.56-2.561-3.84-4.16c-0.96-1.28-1.92-2.88-2.561-4.479
	c-1.279-2.88-1.92-5.761-1.92-8.96C627.2,414.4,636.16,404.8,647.36,403.52z M627.52,391.039L627.52,391.039
	C627.52,391.039,627.841,391.039,627.52,391.039c1.92,1.28,3.52,2.24,5.12,3.2l0,0L622.4,411.84l-6.72,11.52
	c-0.32,0.32-0.32,0.96-0.32,1.601c0,0.64,0.32,1.6,0.32,1.6l6.72,11.52l2.561,4.48l2.56,4.479c-1.92,0.961-3.84,1.601-5.44,2.561
	l-2.56-4.16l-2.56-4.479l-6.4-11.2c-0.32-0.32-0.32-0.641-0.32-0.96c-0.64-1.28-0.64-2.561-0.64-3.84c0-1.28,0.32-2.561,0.64-3.521
	l0,0l0,0c0-0.32,0.32-0.64,0.641-0.96L627.52,391.039L627.52,391.039L627.52,391.039z M595.2,411.199
	c0.641-2.56,1.28-4.8,2.561-7.04c0.64-1.6,1.6-3.199,2.239-4.8c0.32-0.32,0.32-0.64,0.641-0.96c0.64-1.28,1.6-2.88,2.56-4.16
	c0.96-1.279,1.92-2.56,2.88-3.84c0.961-0.96,1.601-1.92,2.561-2.88c0.32-0.32,0.96-0.96,1.28-1.28c1.279-1.279,2.56-2.239,3.84-3.52
	l0,0c2.56,1.6,4.8,2.88,7.359,4.479l0,0c-6.399,4.801-11.52,11.2-15.04,18.24c-1.6,3.2-2.56,6.4-3.52,9.92
	c-0.96,3.521-1.28,7.36-1.28,11.2c0,7.04,1.601,14.08,4.48,20.16c0.64,1.6,1.6,3.2,2.56,4.8c0.641,1.28,1.601,2.56,2.561,3.84
	c-2.561,0.96-5.12,2.24-7.681,3.2c-0.319-0.32-0.64-0.96-0.96-1.28c-0.64-0.96-1.279-1.92-1.6-2.88c-4.48-8.32-7.36-17.6-7.36-27.84
	c0-3.521,0.32-6.72,0.96-9.92C594.24,414.4,594.56,412.8,595.2,411.199z"/>
<path fill="#FFFFFF" d="M622.4,596.8h30.08l21.44-21.44V552c-1.601,0.64-2.88,1.279-4.48,1.92
	c-18.88,8.319-37.76,16.96-56.96,25.279c-1.6,0.641-3.52,1.601-5.12,2.24c0,0,0,0-0.32,0L622.4,596.8L622.4,596.8z M663.36,566.4
	c2.24,0,3.84,1.601,3.84,3.84c0,2.24-1.6,3.84-3.84,3.84s-3.84-1.6-3.84-3.84C659.52,568.32,661.12,566.4,663.36,566.4z
	 M649.6,580.48c2.24,0,3.84,1.6,3.84,3.84s-1.6,3.84-3.84,3.84s-3.84-1.6-3.84-3.84S647.36,580.48,649.6,580.48z M627.841,582.4
	c2.239,0,3.84,1.601,3.84,3.84c0,2.24-1.601,3.84-3.84,3.84c-2.24,0-3.841-1.6-3.841-3.84C624,584,625.6,582.4,627.841,582.4z"/>
<path fill="#FFFFFF" d="M498.24,486.72C498.24,486.72,497.921,487.039,498.24,486.72c-6.399,2.56-12.16,4.479-16.64,6.399
	c-5.12,1.92-4.48,4.801-3.84,6.08c0.319,0,0.319,0,0.64,0l0,0c2.24,0,4.8,0,7.04,0c3.84-0.319,8.64-0.96,14.4-1.6
	c1.279-0.32,2.88-0.32,4.159-0.64v-0.32c-0.319-1.601-0.319-2.88-0.64-4.48l0,0c0-0.319,0-0.319,0-0.64
	c-0.32-1.92-0.32-3.84-0.32-5.44v-0.319v-0.32C501.44,485.76,499.841,486.079,498.24,486.72z"/>
<path fill="#FFFFFF" d="M587.52,589.44c-0.64,0.32-1.6,0.64-2.24,0.96c-1.6,0.64-3.2,1.28-5.12,1.92c0,0-0.319,0-0.319,0.32
	c5.439,9.6,13.12,17.92,22.72,23.68c9.92,6.4,22.08,9.92,34.56,9.92c36.48,0,65.921-29.439,65.921-65.92
	c0-6.72-0.961-12.8-2.881-18.88c-1.6,0.64-2.88,1.28-4.479,1.6c-0.64,0.32-1.28,0.641-2.24,0.961c-1.6,0.64-3.2,1.279-4.8,1.92
	c-0.32,0-0.32,0-0.641,0.319c1.28,4.48,1.921,9.28,1.921,14.08c0,14.721-5.761,27.84-15.36,37.44
	c-9.6,9.6-22.72,15.359-37.44,15.359c-10.56,0-20.479-3.199-28.8-8.64c-3.2-1.92-6.08-4.16-8.64-6.72
	c-2.88-2.88-5.44-6.4-7.681-9.92C590.72,588.159,589.12,588.8,587.52,589.44z"/>
<path fill="#FFFFFF" d="M476.801,223.04c10.88-3.521,21.439-5.12,32-5.12c17.6,0,35.199,4.479,53.12,11.2l0,0
	c-0.641-0.641-0.96-1.28-1.601-1.92l-0.32-0.32c-0.319-0.64-0.959-1.28-1.279-1.92l-0.32-0.32c-0.32-0.64-0.64-1.28-0.96-1.92
	l-0.32-0.32c-0.319-0.64-0.64-1.6-0.96-2.239c-0.319-0.96-0.64-1.92-0.96-2.881c0-0.319-0.319-0.64-0.319-1.279
	c-0.32-0.96-0.32-1.92-0.641-2.88c-0.319-1.601-0.319-2.88-0.319-3.841l0,0l0,0c0-1.279,0-2.56,0.319-3.84
	c0-0.319,0.32-0.96,0.32-1.279c0-0.32,0-0.96,0.32-1.28V183.36V166.4h-0.641l0.32-1.279v-2.881c0-0.319-0.32-0.319-0.64-0.64l0,0
	l-7.04-4.16c-0.96-0.64-2.24-0.319-2.881,0.641l-4.479,5.439l-0.64,0.641l-0.641-7.36c0-0.32-0.319-0.96-0.64-1.28
	c-0.32-0.319-0.96-0.64-1.601-0.64h-8c-0.959,0-1.92,0.96-2.239,1.92l-0.96,7.68v0.32l-5.12-6.4c0,0,0,0-0.32,0
	c-0.64-0.64-1.92-0.96-2.56-0.319l-7.04,4.159c-0.96,0.641-1.28,1.601-0.96,2.561l2.88,7.36l-7.36-2.881
	c-0.96-0.319-2.24,0-2.56,0.96l-4.16,7.04c-0.64,0.96-0.32,2.24,0.64,2.881l6.4,5.119l-8,1.28c-0.96,0-1.92,0.96-1.92,2.24v8
	c0,0.96,0.64,1.6,1.6,1.92h0.32l8,1.28l-0.32,0.319l-5.76,4.801c-0.96,0.64-0.96,1.92-0.64,2.88l0.96,1.92
	c-9.28,0.96-18.561,3.2-28.16,7.04v8.96c0.32,0,0.64-0.32,0.64-0.32C473.28,224.32,474.881,223.68,476.801,223.04z M532.801,204.16
	c-6.4,0-11.521-5.12-11.521-11.521s5.12-11.52,11.521-11.52c6.399,0,11.52,5.119,11.52,11.52S539.2,204.16,532.801,204.16z"/>
<path fill="#FFFFFF" d="M734.08,578.24l21.12-7.68c1.601-0.64,2.88-2.24,2.88-4.16v-12.8c0-1.28-0.64-2.561-1.6-3.2
	c-0.32-0.32-0.64-0.64-1.28-0.64l-19.84-7.36c-0.64-0.32-0.96-0.32-1.28-0.64c-0.319,0-0.64-0.32-0.64-0.32
	c-0.64-3.52-1.6-7.04-2.56-10.24c-1.601,0.32-2.881,0.96-4.48,1.28c-2.88,0.96-5.439,1.6-8.32,2.56
	c-1.6,0.641-3.199,1.28-5.119,1.601c-0.32,0-0.32,0-0.641,0.32c2.24,7.359,3.521,15.04,3.521,23.359
	c0,21.76-8.641,41.28-23.04,55.681c-14.4,14.079-33.92,23.039-55.681,23.039c-14.72,0-28.479-4.159-40.319-11.199
	c-5.44-3.2-10.561-7.36-15.04-11.84c-5.44-5.44-10.24-11.841-13.76-18.881c-1.601,0.641-3.2,0.96-4.48,1.601
	c-7.04,2.24-14.08,4.479-21.12,6.399c-2.56,0.641-5.439,1.28-8,1.92c-0.64,0-0.96,0.32-1.6,0.32l-2.561,3.2
	c-0.96,1.28-1.279,3.521-0.319,4.8l6.399,11.2c0.32,0.64,1.28,1.28,1.92,1.6c0.641,0.32,1.601,0.641,2.561,0.32l20.16-3.52
	c1.279-0.32,2.239-0.32,2.88-0.32c0,0.32,0.319,0.32,0.319,0.64c2.881,3.2,5.761,6.08,8.96,8.96c0,0.32,0,0.641,0,0.96l-3.84,22.08
	c-0.319,1.601,0.641,3.521,2.24,4.48l0.64,0.319l10.561,6.08c1.28,0.96,3.52,0.641,4.8-0.319l16.32-13.44
	c0.64-0.64,1.279-0.96,1.92-1.28c4.16,1.28,8.64,2.561,12.8,3.521c0,0,0,0.32,0.32,0.32c0,0.319,0.319,0.319,0.319,0.64l7.681,21.12
	c0.319,0.96,1.279,1.92,2.239,2.24c0.641,0.319,1.28,0.64,1.921,0.64h12.8c1.6,0,3.52-1.28,4.159-2.88l7.36-19.84
	c0.32-0.96,0.64-1.601,0.96-2.24c4.48-0.96,8.641-1.92,12.8-3.521c0.32,0.32,0.641,0.32,0.96,0.641l0,0l16.961,14.399
	c0.319,0,0.319,0.32,0.64,0.32c1.28,0.64,2.88,0.64,4.16,0l11.2-6.399c1.279-0.961,2.239-2.881,2.239-4.48l-3.52-20.16
	c-0.32-1.28-0.32-2.24-0.32-3.2c3.2-2.88,6.4-6.08,9.28-9.279c0.32,0,0.64,0,1.28,0l22.079,3.84c1.601,0.319,3.521-0.641,4.48-2.24
	l6.4-11.2c0.96-1.279,0.64-3.52-0.32-4.8l-13.44-16.32c-0.64-0.64-0.96-1.279-1.279-1.92c1.279-4.16,2.56-8.64,3.52-12.8
	C733.44,578.56,733.76,578.56,734.08,578.24z"/>
<path fill="#FFFFFF" d="M767.041,288.64c-0.641,0-1.28-0.32-2.24-0.32s-1.601,0-2.561-0.319c-0.96,0-2.24-0.32-3.199-0.32
	c-2.24,0-4.48-0.32-6.721-0.32c-0.96,0-1.6,0-2.56,0c-2.561,0-5.44,0-8.32,0.32c-2.88,0-6.08,0.32-9.28,0.64
	c-1.92,0.32-3.84,0.32-5.76,0.641c-0.64,0-1.28,0.319-1.6,0.319c-1.28,0.32-2.561,0.32-3.521,0.641
	c-0.64,0.319-1.6,0.319-2.239,0.64c-0.961,0.32-1.921,0.64-2.881,0.64c-0.64,0.32-1.6,0.32-2.239,0.641
	c-0.96,0.32-1.921,0.64-2.88,0.96c-0.961,0.32-1.601,0.64-2.561,0.96s-1.92,0.64-2.56,0.96c-0.96,0.32-1.921,0.64-2.561,0.96
	c-0.96,0.32-1.92,0.64-2.56,0.96c-0.96,0.32-1.92,0.64-2.881,1.28c-0.959,0.319-1.92,0.96-2.88,1.279
	c-0.96,0.32-1.92,0.96-2.88,1.28c0,0-0.319,0-0.319,0.32l0,0c13.439,7.68,26.56,14.72,39.68,20.16l0,0c0-0.32-0.32-0.641-0.32-0.96
	l-4.16-8.641v-0.32c0-0.319,0-0.64,0-0.96c0-0.319,0.32-0.64,0.32-0.96l4.16-4.159l0.32-0.32c0.64-0.32,1.279-0.32,1.92,0l8.64,3.84
	l0.64,0.32c1.601,0.64,2.88,0.319,3.2,0.319c0.641-0.319,1.28-0.64,1.92-0.96c0,0,0.32-0.319,0.641-0.64
	c0.319-0.32,0.64-0.64,0.96-1.28c0,0,0,0,0-0.319c0.319-0.32,0.319-0.641,0.64-1.28l0.64-1.92l2.561-7.04c0-0.32,0-0.32,0.319-0.32
	l0,0l0.32-0.319c0,0,0,0,0.32-0.32c0.32,0,0.32-0.32,0.64-0.32c0.32,0,0.32,0,0.64,0h0.961h4.8c0.64,0,1.6,0.641,1.92,1.28l3.84,9.6
	c0.64,1.601,1.6,2.24,1.92,2.24c0.64,0.32,1.28,0.32,1.601,0.64h0.319c0,0,0.64,0,1.601,0c0.64,0,1.6-0.319,2.56-0.64l5.76-2.88l0,0
	l2.88-1.28c0.32-0.32,0.641-0.32,1.28,0c0.32,0,0.64,0.32,0.96,0.64l4.16,4.16c0.64,0.641,0.64,1.601,0.32,2.24l-0.96,1.92
	l-3.2,7.36c-0.32,0.64-0.32,0.96-0.32,1.6c0,0.641,0,0.96,0,1.28c0,0,0,0,0,0.32c0.32,0.64,0.641,1.279,0.96,1.92
	c0,0,0.641,1.279,3.2,2.239l8,2.881l0.96,0.319l0,0l0,0c3.2-0.64,6.4-1.6,9.601-2.56c0.64-0.32,1.6-0.32,2.239-0.641l0,0
	c0.96-0.319,1.92-0.64,2.88-0.96l0,0c0,0,0,0,0.32-0.319l0.32-0.32c0,0,0,0,0.319-0.32c0.641-0.64,0.96-1.279,1.28-1.92
	c0.641-0.96,0.96-1.92,1.28-2.56c0-0.32,0.319-0.641,0.319-0.96c0-0.32,0-0.32,0-0.641c0-5.439-4.159-12.479-13.119-18.88
	l-0.32-0.319l0,0c-3.2-1.92-6.72-3.84-10.88-5.76c-4.16-1.601-8.64-3.2-13.44-4.16c-3.199-0.641-7.04-1.601-10.56-1.92
	C767.68,288.64,767.36,288.64,767.041,288.64z"/>
<path fill="#FFFFFF" d="M513.28,538.56c0-1.6-0.319-2.88-0.319-3.521c0-0.319-0.32-0.319-0.32-0.64c-1.28-2.24-4.16-3.2-5.76-3.2
	l0,0c-2.24,0.32-3.2,0.96-3.84,1.601c-0.32,0.64-0.641,1.279-0.641,2.239c0,0.32,0,0.641,0,1.28v22.72v0.32v3.521l0,0v0.64
	c0,0.96,0,1.6,0.32,2.24c0,0,0,0,0,0.319l0,0c0.319,0.32,0.64,0.641,0.96,0.96c0.64,0.32,1.92,0.32,3.52,0
	c0.32,0,1.28-0.319,1.92-0.96c0.641-0.319,1.601-0.96,2.24-1.92c0.96-0.96,1.601-1.92,1.92-2.88c0,0,0,0,0-0.319
	c0-0.32,0.32-0.96,0.32-1.601c0.32-3.2,0.32-10.56,0.32-16.32C513.6,541.76,513.6,539.84,513.28,538.56z"/>
<path display="none" fill="none" stroke="#FF0000" stroke-miterlimit="10" d="M23.413,96.088
	c123.365-44.742,206.544,124.579,330.588,104.803c0,0,70.029-21.798,82.499-25.976"/>
<path display="none" fill="none" stroke="#FF0000" stroke-miterlimit="10" d="M21.413,19.088
	c123.365-44.742,206.544,124.579,330.588,104.803c0,0,70.029-21.798,82.499-25.976"/>
<path display="none" fill="none" stroke="#FF0000" stroke-miterlimit="10" d="M465.413,250.088
	c123.365-44.742,206.544,124.579,330.588,104.803c0,0,70.029-21.798,82.499-25.976"/>
<path fill="none" d="M819.002,330.035c-0.641,0.32-1.279,0.32-1.92,0.641c-1.279,0.318-2.561,0.959-3.84,1.279
	c-4.16,1.279-8.641,2.561-12.801,3.199c-1.6,0.32-3.52,0.641-5.119,0.961c-4.16,0.641-8.32,0.959-12.16,0.959
	c-0.641,0-1.279,0-1.6,0c-2.561,0-5.439,0-8-0.318c-0.961,0-2.24-0.32-3.201-0.32c-0.318,0-0.318,0-0.639,0
	c-1.281,0-2.561-0.32-3.84-0.32c-0.32,0-0.32,0-0.641,0c-3.84-0.641-7.68-1.281-11.199-2.24c-0.961-0.32-1.602-0.32-2.561-0.641
	c-1.92-0.32-3.52-0.959-5.439-1.6s-3.842-1.279-5.762-1.92c0,0,0,0-0.318,0c-0.961-0.32-2.24-0.641-3.201-1.279
	c-0.32,0-0.32,0-0.639-0.32c-1.602-0.641-3.521-1.281-5.121-1.92c-0.959-0.32-1.92-0.641-2.879-0.961
	c-14.08-5.759-27.842-13.438-41.922-21.759c-1.92-0.96-3.52-2.24-5.439-3.2c-0.639-0.32-1.6-0.96-2.24-1.28
	c-0.32,0-0.639-0.319-0.639-0.319c-0.961-0.641-1.92-1.28-3.201-1.92c-0.639-0.32-1.279-0.96-1.92-1.28
	c-0.959-0.64-1.6-0.96-2.561-1.6l0,0l-0.318-0.32c-2.561-1.6-5.121-3.2-7.682-4.8c-7.039-4.48-13.76-8.641-20.799-13.12
	c-8.32-5.44-19.52-11.2-28.161-16.32c-37.119-20.16-70.399-35.84-103.04-35.84c-10.56,0-21.439,1.601-32,5.44
	c-1.92,0.64-3.52,1.279-5.439,1.92h-0.32v13.12v13.119v6.4v37.12v36.16c0.64-0.32,0.96-0.32,1.601-0.641c0.319,0,0.319,0,0.64-0.32
	c0.32,0,0.64-0.32,0.64-0.32c1.28-0.32,2.561-0.959,3.84-1.279c0.32,0,0.961-0.32,1.28-0.32c0.32,0,0.641-0.32,0.641-0.32
	c9.6-2.879,19.52-4.16,29.119-4.16l0,0c18.881,0,37.761,5.121,56.641,12.801c3.2,1.279,6.08,2.561,9.28,4.16
	c1.92,0.959,3.52,1.6,5.439,2.559c4.48,2.24,9.28,4.48,13.76,7.041c1.92,0.959,3.84,1.92,5.44,3.199
	c1.28,0.641,2.24,1.281,3.52,1.92c0.96,0.32,1.601,0.961,2.561,1.281c0.96,0.639,1.92,0.959,2.88,1.6
	c0.64,0.32,1.28,0.641,1.6,0.959c2.24,1.281,4.16,2.561,6.4,3.842c1.6,0.959,3.52,1.92,5.12,3.199
	c7.359,4.48,15.04,9.279,22.4,14.08c0.641,0.32,1.279,0.641,1.6,0.959c2.561,1.602,5.439,3.201,8,5.122
	c9.6,6.08,19.201,12.159,28.801,17.599c1.279,0.641,2.561,1.6,3.84,2.24c0.641,0.32,1.279,0.641,1.92,0.959
	c2.24,1.281,4.48,2.561,6.721,3.842c1.279,0.639,2.879,1.6,4.158,2.238c1.92,0.961,3.842,1.92,5.441,2.881
	c0.639,0.32,0.959,0.641,1.6,0.641c0.641,0.318,1.6,0.639,2.24,1.279c2.24,1.279,4.799,2.24,7.039,3.52
	c0.961,0.32,1.92,0.961,2.881,1.281c1.92,0.959,3.84,1.6,5.76,2.559c2.881,1.281,5.76,2.24,8.959,3.521
	c1.922,0.639,3.521,1.279,5.441,1.92c1.92,0.639,3.84,1.279,5.76,1.92c11.84,3.52,23.68,5.439,35.52,5.439
	c2.561,0,5.121,0,7.68-0.32c6.4-0.32,12.801-1.6,19.201-3.199c3.84-0.961,79.387-18.816,83.227-20.416c0-6.4,0-17.158,0-24.517
	c0-21.44,0-29.947,0-51.388v-40.612L819.002,330.035z"/>
<path fill="none" d="M674.996,352.11L674.996,352.11c0.961,0.32,1.92,0.64,2.881,0.96l0,0c0.32,0,0.32,0,0.32-0.32
	c0.318,0,0.318-0.319,0.318-0.64c-0.318-2.88-0.639-5.76-0.639-8.319c-0.32-3.841-0.961-8-1.602-11.841
	c0-0.319-0.318-0.64-0.639-0.64s-0.32,0-0.32,0c-0.32,0-0.32,0-0.641-0.32c-0.32,0-0.32,0-0.639,0c-0.32,0-0.32,0.32-0.32,0.641
	c-0.641,3.84-0.961,7.68-1.6,11.52c-0.32,2.24-0.32,4.48-0.641,6.72c0,0.32,0,0.32,0.32,0.641
	C672.756,351.15,674.037,351.79,674.996,352.11z"/>
<path fill="none" d="M505.907,278.37L505.907,278.37c0.997,0.177,1.993,0.354,2.989,0.531l0,0c0.317-0.046,0.317-0.046,0.271-0.363
	c0.316-0.046,0.27-0.362,0.223-0.679c-0.735-2.803-1.471-5.605-1.843-8.138c-0.876-3.753-2.114-7.775-3.306-11.482
	c-0.047-0.316-0.409-0.586-0.726-0.54c-0.317,0.046-0.317,0.046-0.317,0.046c-0.316,0.046-0.316,0.046-0.68-0.224
	c-0.317,0.046-0.317,0.046-0.633,0.093c-0.317,0.047-0.27,0.364-0.224,0.681c-0.074,3.892,0.167,7.738,0.093,11.63
	c0.009,2.263,0.335,4.479,0.344,6.741c0.047,0.317,0.047,0.317,0.41,0.587C503.551,277.746,504.911,278.193,505.907,278.37z"/>
<path fill="none" d="M814.691,404.974L814.691,404.974l-3.436-40.709l-0.107-1.313l0,0c-0.029-0.328-0.113-1.312-0.566-2.786
	c-0.111-1.314-0.566-2.791-1.047-4.594c-0.484-1.8-1.311-3.766-2.133-5.733l0,0c-0.029-0.327-0.371-0.488-0.4-0.818l0,0
	c0.658-0.002,13.906-3.219,13.906-3.219c0.314-0.164,11.844-4.188,11.844-4.188c0.313-0.166,6.369-2.675,7.316-3.172
	c-0.291,0.493-0.58,0.985-0.838,1.812c-1.096,2.636-2.367,7.075-2.326,11.514c0.055,0.656,0.113,1.313,0.139,1.641
	c0.057,0.658,0.111,1.316,0.168,1.972c0.084,0.983,0.451,1.476,0.51,2.129c-0.688-0.32-1.346-0.315-2.033-0.641
	c-1.346-0.319-2.348-0.478-3.32-0.309c-0.977,0.174-1.979,0.016-2.607,0.346c-0.318,0.168-0.662,0.009-0.662,0.009s0,0-0.314,0.168
	l0,0l0,0l0,0c-2.236,0.836-4.158,1.504-6.424,2.016c-0.316,0.164-0.316,0.164-0.631,0.333c0,0-0.289,0.494-0.26,0.822l0,0l0,0
	l0.221,2.628l0.941,11.16c0.029,0.332,0.375,0.488,0.688,0.327c1.605-0.506,3.213-1.01,5.135-1.683l0,0l0,0l0,0
	c0,0,0.316-0.167,0.629-0.333c1.264-0.665,4.076-2.488,6.463-5.467l1.635,19.371c-1.688-0.479-3.35-0.634-4.666-0.624
	c-0.66,0.005-1.633,0.176-1.979,0.013c-0.314,0.167-0.314,0.167-0.658,0.004l0,0l0,0l0,0l0,0l0,0l0,0l0,0
	c-1.604,0.505-3.213,1.009-5.133,1.68c-0.314,0.167-0.314,0.167-0.633,0.334c-0.314,0.165-0.289,0.494-0.258,0.822l1.162,13.79l0,0
	c0,0,0,0,0.027,0.326c0.029,0.33,0.371,0.492,0.689,0.324c2.264-0.506,4.502-1.346,6.422-2.014l0,0c0,0,0.314-0.166,0.631-0.336
	c1.264-0.666,4.705-2.823,7.986-6.952c0.08,0.984-0.18,1.809-0.096,2.791c0.055,0.658,0.109,1.314,0.166,1.969
	c0.357,4.271,1.93,7.212,3.414,9.175c0.742,0.982,1.455,1.631,1.826,2.123c-3.814,1.668-7.631,3.338-11.789,4.846l0,0
	c-7.055,2.35-2.867,1.174-9.98,2.863l0,0c-3.867,1.01-8.082,1.865-11.98,2.547C815.332,412.525,814.75,405.63,814.691,404.974z"/>
<path display="none" fill="none" stroke="#FF0000" stroke-miterlimit="10" d="M449.413,317.088
	c123.365-44.742,206.544,124.579,330.588,104.803c0,0,70.029-21.798,82.499-25.976"/>
<path fill="none" d="M755.217,349.499c-2.879,5.76-4.15,17.252-4.15,17.57v32.32v8.321v0.32l0,0l0,0l0,0
	c0,0.641,0,7.359,2.561,15.359c-0.641-0.32-1.82-0.539-2.461-0.859c-4.801-2.881-10.15-1.846-14.949-5.047
	c0.639-1.279,2.371-6.574,2.691-8.174c0.318-1.6,0.639-3.199,0.959-4.48c0.32-1.279,0.32-2.559,0.32-3.199c0-0.32,0-0.641,0-0.959
	v-0.32l0,0l0,0l0,0v-0.32v-7.681v-32.96l0,0l0,0l0,0l0,0l0,0c0-0.641,0-7.039-2.561-15.039v-0.32c0,0,0,0,0.32,0
	C744.601,347.233,748.185,349.311,755.217,349.499z"/>
<path fill="none" d="M531.563,251.479c2.56-4.8,6.08-7.36,9.92-7.36c1.6,0,3.52,0.641,5.439,1.601c4.801,2.56,9.28,8.64,12.801,16
	l0,0c2.56,3.199,4.8,6.399,7.359,9.6c-0.96,1.28-2.239,2.24-3.52,2.88c-2.24,1.28-3.84,1.92-5.44,1.92
	c-3.52,0-5.439-3.2-5.439-5.439c0-0.641,0-1.28-0.32-1.92c-0.96-5.761-2.56-9.601-4.8-10.881l0,0
	c-0.32-0.319-0.641-0.319-0.96-0.319c-2.24,0.319-3.2,2.88-4.16,6.399c-0.64,2.24-0.64,8.96-0.64,16c0,6.4,0.319,12.48,0.64,15.04
	c0.96,5.759,2.56,9.919,4.8,11.201c0.32,0.32,0.641,0.32,0.96,0.32c2.24-0.32,3.2-2.881,4.16-6.721l0,0c0-0.32,0.32-1.279,0.64-5.76
	c1.601,1.92,4.48,5.44,8.641,5.44c1.6,0,3.52-0.641,5.12-1.919c0,1.919-0.32,3.519-0.641,5.439c-0.319,2.24-0.96,4.48-1.6,6.4
	c-2.24,7.359-6.72,11.52-11.521,11.52c-1.6,0-3.52-0.32-5.439-1.6c-0.32,0-0.32-0.32-0.641-0.32c-0.959-0.639-1.92-1.279-3.199-2.24
	c-0.641-0.639-1.601-1.279-2.24-1.92c-0.64-0.639-1.28-1.6-1.92-2.238c-7.36-9.281-12.8-25.281-12.8-41.281
	C527.403,263.319,529.003,256.279,531.563,251.479z"/>
<path fill="none" d="M667.666,308.631c0.846,0.424,9.113,3.912,12.916,6.143c0,0,3.926,2.754,6.111,4
	c-0.961,3.52-0.77,5.726-0.77,8.604c0,1.281,0,1.92,0,2.881c0,0.32,0,0.639,0,0.639v0.32l0,0l0,0c0.641,6.721,1.6,13.441,2.24,20.16
	c0,0.641,0.32,1.6,0.32,2.24c0.639,6.721,1.6,13.439,2.24,20.16c0,0,0,0,0,0.32c0,0.959,0.959,5.439,2.559,11.199
	c0.32,1.6,3.424,12.757,4.064,14.357c-1.279-0.641-8.428-4.266-8.428-4.266c-1.92-0.961-4.998-2.783-5.318-2.783
	c0,0-6.389-4.161-8.947-5.122c0.318-0.639,2.629-6.347,2.949-6.985c0.32-2.24,0.641-4.16,0.641-6.08c0-1.281,0-2.561,0-3.521
	c0-0.639,0-1.279,0-1.6s0-0.32-0.32-0.641c-0.959-0.639-2.24-1.279-2.879-1.6c-0.641-0.32-0.961-0.32-1.602-0.639
	c-0.959-0.32-1.6-0.32-2.24-0.32c-0.318,0-0.639,0-0.959,0s-0.641,0.32-0.641,0.639c0,0.32,0,0.641,0,0.961v0.32
	c0,1.6,0,3.84,0.32,6.719c0.32,1.92,0.629,8.723,0.949,10.963c-0.961-0.318-15.67-9.361-16.949-10.002
	c0.641-1.279,1.279-2.561,1.92-3.84c0.641-1.6,1.279-3.201,1.6-4.801c0.32-0.639,0.32-0.959,0.32-1.6
	c0.32-0.641,0.32-1.279,0.32-1.92c0-0.32,0-0.641,0.32-0.961v-0.318l0,0l0,0c0-0.961,0.32-1.92,0.32-2.561
	c0.639-5.439,1.279-10.561,1.92-16c0-0.641,0.32-1.279,0.32-2.24c0.639-5.76,1.279-11.52,2.238-17.279l0,0v-4.16l0,0
	c0-0.32,0-0.641-0.318-0.961c0-0.318-0.641-0.639-0.961-0.639c-0.641,0-1.279,0.639-1.92,0.959c-0.961,0.961-1.92,2.24-2.561,3.201
	c-0.32,0.639-0.639,0.959-0.959,1.279c-0.641-1.6-1.6-5.76-2.24-9.92c-0.641-2.561-0.961-4.8-1.279-6.399
	c-0.32-0.641-0.32-1.281-0.32-1.92C658.404,305.619,662.545,307.031,667.666,308.631z"/>
<path fill="none" d="M615.648,350.655c-11.006-15.434-2.25-55.801-2.25-55.801l0,0c0-0.307,1.151-9.919-1.408-17.891
	c3.52,1.839,13.998,5.785,13.249,13.907l0,0c0,0-7.216,39.864-2.999,52.944c1.306,4.051,6.936,4.834,10.783,3.22
	c5.254-2.203,4.375-40.528,4.375-40.528l0,0c0-0.172-0.221-5.746,1.857-8.619c1.614-2.229,5.385-2.036,6.784-1.499
	c1.6,0.612,3.199,1.226,4.479,1.84c-0.318,0.614-0.318,0.918-0.639,1.532c-0.641,1.532-0.961,3.065-1.281,4.295
	c-0.318,0.917-0.318,1.838-0.639,2.757c0,0.921-0.32,1.534-0.32,2.147c0,0.306,0,0.92,0,1.227s0,0.611,0,0.918v0.309l0,0l0,0v4.6
	l-0.773,22.548c0,0-0.842,19.673-15.592,21.506C624.148,359.332,619.892,356.277,615.648,350.655z"/>
<path fill="none" d="M883.201,391.596c-1.928,5.234-6.549,10.011-12.398,11.784c-0.316,0.059-0.943,0.182-1.258,0.24
	c-3.457,0.664-8.848,2.635-11.676,3.178c-0.314,0.061-1.67-0.006-1.67-0.006c-0.379-7.06-0.201-9.017-3.063-15.494
	c2.301,1.625,3.471,1.721,7.508,0.499c2.338-0.709,4.486-1.425,5.373-1.595c0,0,1.826-0.517,2.455-0.638
	c4.592-1.53,6.193-5.079,5.473-8.831l-0.061-0.313c-0.721-3.752-3.342-5.517-9.479-6.931c-8.143-1.678-14.807-7.527-17.479-18.036
	c-0.119-0.624-0.18-0.938-0.301-1.562c-0.66-3.441-0.572-6.374-0.17-9.368c0.268-1.997,0.912-3.74,1.613-5.173
	c1.406-2.864,3.559-5.224,6.207-6.703c1.451-0.927,2.902-1.854,4.787-2.217c0.629-0.121,1.258-0.241,1.572-0.303
	c1.225-0.234,4.424-0.645,8.014,0.305c3.432,0.907,6.943,0.709,7.537,0.692l0.236,13.256c-1.123-0.917-5.807-1.13-7.432-1.102
	c-1.146,0.021-3.877,0.112-5.713,0.604l-0.316,0.061c-0.313,0.061-0.627,0.121-1.256,0.242c-4.279,1.47-5.623,4.646-5.021,7.772
	l0.061,0.312c0.359,1.877,1.289,3.319,3.1,4.269c1.811,0.948,4.252,1.775,7.32,2.483c8.771,1.555,14.699,5.278,16.938,15.222
	c0.119,0.625,0.18,0.937,0.301,1.563C885.109,381.18,884.873,386.736,883.201,391.596z"/>
<path fill="none" d="M496.449,238.072c0.667,0.251,1.653,0.47,2.32,0.721l0,0c1.97,0.438,4.291,1.159,6.262,1.598l0,0
	c3.305,0.941,6.609,1.88,9.945,3.132c-0.627,3.518-0.526,7.91-0.256,10.713c0.12,1.247,0.18,1.869,0.27,2.804
	c0.03,0.312,0.06,0.622,0.06,0.622l0.03,0.312l0,0l0,0c1.266,6.48,2.85,12.932,4.115,19.411c0.061,0.624,0.469,1.526,0.529,2.15
	c1.266,6.481,2.85,12.93,4.116,19.411c0,0,0,0,0.03,0.313c0.09,0.933,1.464,5.203,3.596,10.657c0.468,1.525,2.042,4.941,2.042,4.941
	l-18.597-3.215c0,0,0.238-4.246,0.498-4.898c0.109-2.211,0.247-4.111,0.067-5.979c-0.12-1.249-0.239-2.493-0.329-3.429
	c-0.06-0.622-0.12-1.245-0.15-1.558c-0.029-0.312-0.029-0.312-0.378-0.592c-1.014-0.531-2.349-1.031-3.016-1.282
	s-0.985-0.22-1.652-0.468c-0.986-0.22-1.622-0.159-2.26-0.098c-0.318,0.03-0.638,0.061-0.956,0.092
	c-0.318,0.03-0.607,0.373-0.578,0.683c0.03,0.312,0.061,0.624,0.09,0.936l0.03,0.311c0.15,1.558,0.359,3.738,0.947,6.51
	c0.499,1.84,1.989,7.612,2.518,9.762c-8.752-0.35-19.998,2.707-19.998,2.707s2.678-12.617,3.196-13.924
	c0.486-1.619,1.649-9.59,1.649-9.59c-0.09-0.935,0.14-1.899,0.08-2.523c0.128-5.356,0.285-10.402,0.414-15.759
	c-0.06-0.623,0.199-1.276,0.11-2.21c0.098-5.669,0.195-11.337,0.612-17.037l0,0l-0.39-4.05l0,0c-0.029-0.31-0.059-0.622-0.407-0.904
	c-0.029-0.311-0.697-0.561-1.016-0.531c-0.638,0.062-1.215,0.746-1.821,1.119c-0.867,1.026-1.702,2.364-2.249,3.359
	c-0.259,0.653-0.547,0.996-0.836,1.338c-0.786-1.497-2.131-5.455-3.158-9.443c-0.876-2.43-1.405-4.58-1.873-6.107
	c-0.378-0.593-0.438-1.216-0.498-1.838C485.29,235.686,491.203,237.004,496.449,238.072z"/>
<path fill="none" d="M606.863,275.737c-0.64,1.3-1.889,3.091-2.209,4.713c-0.96,4.219-0.451,7.092-0.451,7.742l0,0l-13.37-10.81
	c0,0-3.43,45.554,1.576,60.142c0,0-9.326-5.291-13.454-7.056c3.294-12.94,1.127-58.411,1.127-58.411l-10.306-4.714
	c0-0.325,1.727-3.853-0.833-12.614C583.706,259.197,593.24,264.448,606.863,275.737z"/>
<path fill="none" d="M703.004,403.851c0-6.399,0-12.48,0-18.878c0-2.24,0-4.16,0-6.4c0-5.439,0-10.561,0-16c0-2.24,0-4.16,0-6.4
	c0-5.119,0-26.371,0-26.371c5.15,3.797,9.346,4,12,4.757l-1.119,28.655v6.398v16.32v3.84c2.461,5.946,15.801,5.28,15.801,5.28
	c-1.334,2.004-1.82,16.892,0,20.415C729.045,415.466,709.904,405.718,703.004,403.851z"/>
<path fill="none" d="M803.097,349.007c-4.801,4.513-0.26,15.829-0.26,15.829s-3.4-1.756-8.512-2.446
	c-3.506-0.473-9.207,0.051-9.207,0.051s-4.639,51.698,2.715,63.323c0,0-10.885,1.191-16.238-0.012
	c5.07-15.311,3.461-63.255,3.461-63.255s-3.459-0.609-8.865,0.049c-5.406,0.659-8.195,2.032-8.195,2.032
	c-0.141-0.292,4.5-8.231-1.645-14.975C767.746,353.135,791.793,349.933,803.097,349.007z"/>
<path fill="none" d="M755.217,392.606C754.896,392.606,754.896,392.606,755.217,392.606
	C754.896,392.606,754.896,392.606,755.217,392.606L755.217,392.606z"/>
</svg>
